# xmcd
#
# Track frame offsets: 
#        182
#        11535
#        27815
#        38727
#        54872
#        66425
#        77375
#        90865
#        103162
#        118700
#        132575
#        143215
#        153935
#        164140
#        187417
#        198810
#        209915
#
# Disc length: 3064 seconds
#
# Revision: 5
# Processed by: cddbd v1.5.2PL0 Copyright (c) Steve Scherf et al.
# Submitted via: ExactAudioCopy v0.99pb3
#
DISCID=ed0bf611
DTITLE=Various Artist - Blues Legends - Volume 4
DYEAR=1991
DGENRE=Blues
TTITLE0=John Lee Hooker - Boom Boom
TTITLE1=Muddy Waters - Got My Mojo Workin'
TTITLE2=Howlin' Wolf - Wang Dang Doodle
TTITLE3=B.B. King - It's My Own Fault Baby
TTITLE4=Bo Diddley - Pretty Thing
TTITLE5=John Lee Hooker - Big Fine Woman
TTITLE6=Muddy Waters - Rollin' And Tumblin'
TTITLE7=Howlin' Wolf - Streamline Woman
TTITLE8=B.B. King - Walkin' And Cryin'
TTITLE9=Bo Diddley - Before You Accuse Me
TTITLE10=John Lee Hooker - Keep Your Hands To Yourself
TTITLE11=Muddy Waters - She's Alright
TTITLE12=Howlin' Wolf - Do The Do
TTITLE13=B.B. King - The Thrill Is Gone
TTITLE14=Bo Diddley - Say Bossman
TTITLE15=John Lee Hooker - What Do You Say
TTITLE16=Muddy Waters - Where's My Woman Been
EXTD=
EXTT0=
EXTT1=
EXTT2=
EXTT3=
EXTT4=
EXTT5=
EXTT6=
EXTT7=
EXTT8=
EXTT9=
EXTT10=
EXTT11=
EXTT12=
EXTT13=
EXTT14=
EXTT15=
EXTT16=
PLAYORDER=
